# Blender v2.93.3 OBJ File: 'mixer.blend'
# www.blender.org
mtllib paintcolor.mtl
o paintcolor_Cylinder.001
v 0.268402 2.811579 -1.349350
v -0.000000 2.811579 -1.375786
v 0.526490 2.811579 -1.271060
v 0.764346 2.811579 -1.143924
v 0.972827 2.811579 -0.972827
v 1.143924 2.811579 -0.764346
v 1.271060 2.811579 -0.526490
v 1.349350 2.811579 -0.268403
v 1.375786 2.811579 0.000000
v 1.349350 2.811579 0.268403
v 1.271060 2.811579 0.526490
v 1.143924 2.811579 0.764346
v 0.972827 2.811579 0.972827
v 0.764346 2.811579 1.143924
v 0.526491 2.811579 1.271060
v 0.268402 2.811579 1.349350
v -0.000000 2.811579 1.375786
v -0.268402 2.811579 1.349350
v -0.526490 2.811579 1.271060
v -0.764346 2.811579 1.143924
v -0.972827 2.811579 0.972828
v -1.143924 2.811579 0.764346
v -1.271060 2.811579 0.526491
v -1.349350 2.811579 0.268403
v -1.375786 2.811579 -0.000000
v -1.349350 2.811579 -0.268403
v -1.271060 2.811579 -0.526491
v -1.143924 2.811579 -0.764345
v -0.972828 2.811579 -0.972827
v -0.764346 2.811579 -1.143924
v -0.526490 2.811579 -1.271060
v -0.268402 2.811579 -1.349350
vt 0.292944 0.465896
vt 0.250000 0.470126
vt 0.207056 0.465896
vt 0.165762 0.453370
vt 0.127705 0.433028
vt 0.094348 0.405652
vt 0.066972 0.372295
vt 0.046630 0.334238
vt 0.034104 0.292944
vt 0.029874 0.250000
vt 0.034104 0.207056
vt 0.046630 0.165762
vt 0.066972 0.127705
vt 0.094348 0.094348
vt 0.127705 0.066972
vt 0.165762 0.046630
vt 0.207056 0.034104
vt 0.250000 0.029874
vt 0.292944 0.034104
vt 0.334238 0.046630
vt 0.372295 0.066972
vt 0.405652 0.094348
vt 0.433028 0.127705
vt 0.453370 0.165762
vt 0.465896 0.207056
vt 0.470126 0.250000
vt 0.465896 0.292944
vt 0.453370 0.334238
vt 0.433028 0.372295
vt 0.405652 0.405652
vt 0.372295 0.433028
vt 0.334239 0.453370
vn 0.0000 1.0000 -0.0000
usemtl None
s off
f 1/1/1 2/2/1 32/3/1 31/4/1 30/5/1 29/6/1 28/7/1 27/8/1 26/9/1 25/10/1 24/11/1 23/12/1 22/13/1 21/14/1 20/15/1 19/16/1 18/17/1 17/18/1 16/19/1 15/20/1 14/21/1 13/22/1 12/23/1 11/24/1 10/25/1 9/26/1 8/27/1 7/28/1 6/29/1 5/30/1 4/31/1 3/32/1
