# Blender v2.93.3 OBJ File: 'resources.blend'
# www.blender.org
mtllib beams.mtl
o beam1_Cube.001
v 1.077345 0.057224 0.394250
v 1.077345 0.057224 -0.524332
v 1.077345 0.096920 -0.524332
v 1.077345 0.096920 0.394250
v 1.019640 0.057224 -0.524332
v 1.019640 0.057224 0.394250
v 0.922655 0.057224 0.394250
v 0.922655 0.057224 -0.524332
v 1.000000 0.057224 -0.524332
v 1.000000 0.057224 0.394250
v 1.000000 0.096920 -0.524332
v 0.922655 0.096920 -0.524332
v 0.922655 0.096920 0.394250
v 1.000000 0.096920 0.394250
v 0.980360 0.057224 -0.524332
v 0.980360 0.057224 0.394250
v 1.077345 -0.057224 0.394250
v 1.077345 -0.057224 -0.524332
v 1.077345 -0.096920 -0.524332
v 1.077345 -0.096920 0.394250
v 1.019640 -0.057224 -0.524332
v 1.019640 -0.057224 0.394250
v 1.019640 0.000000 0.394250
v 1.019640 0.000000 -0.524332
v 0.922655 -0.057224 0.394250
v 0.922655 -0.057224 -0.524332
v 1.000000 -0.057224 -0.524332
v 1.000000 -0.057224 0.394250
v 1.000000 0.000000 0.394250
v 1.000000 0.000000 -0.524332
v 1.000000 -0.096920 -0.524332
v 0.922655 -0.096920 -0.524332
v 0.922655 -0.096920 0.394250
v 1.000000 -0.096920 0.394250
v 0.980360 -0.057224 -0.524332
v 0.980360 -0.057224 0.394250
v 0.980360 0.000000 0.394250
v 0.980360 0.000000 -0.524332
vt 0.625000 0.437500
vt 0.625000 0.500000
vt 0.625000 0.750000
vt 0.625000 0.812500
vt 0.500000 0.812500
vt 0.625000 0.875000
vt 0.500000 0.875000
vt 0.625000 0.500000
vt 0.625000 0.750000
vt 0.625000 0.875000
vt 0.500000 0.437500
vt 0.500000 0.375000
vt 0.625000 0.375000
vt 0.750000 0.500000
vt 0.750000 0.750000
vt 0.625000 0.375000
vt 0.625000 0.437500
vt 0.625000 0.812500
vt 0.625000 0.750000
vt 0.625000 0.500000
vt 0.500000 0.812500
vt 0.625000 0.750000
vt 0.625000 0.500000
vt 0.500000 0.437500
vt 0.625000 0.437500
vt 0.625000 0.812500
vt 0.625000 0.750000
vt 0.625000 0.500000
vt 0.625000 0.875000
vt 0.625000 0.750000
vt 0.625000 0.500000
vt 0.625000 0.875000
vt 0.625000 0.375000
vt 0.750000 0.750000
vt 0.750000 0.500000
vt 0.625000 0.375000
vt 0.625000 0.437500
vt 0.625000 0.500000
vt 0.625000 0.750000
vt 0.625000 0.812500
vt 0.625000 0.500000
vt 0.625000 0.750000
vn 0.0000 -1.0000 0.0000
vn 0.0000 0.0000 1.0000
vn 1.0000 0.0000 0.0000
vn 0.0000 0.0000 -1.0000
vn 0.0000 1.0000 0.0000
vn -1.0000 0.0000 0.0000
usemtl None
s off
f 5/1/1 2/2/1 1/3/1 6/4/1
f 23/5/2 6/4/2 10/6/2 29/7/2
f 1/3/3 2/2/3 3/8/3 4/9/3
f 10/6/2 6/4/2 1/3/2 4/9/2 14/10/2
f 24/11/3 5/1/3 6/4/3 23/5/3
f 30/12/4 9/13/4 5/1/4 24/11/4
f 3/8/5 11/14/5 14/15/5 4/9/5
f 2/2/4 5/1/4 9/13/4 11/16/4 3/8/4
f 10/6/1 9/13/1 5/1/1 6/4/1
f 15/17/1 16/18/1 7/19/1 8/20/1
f 37/21/2 29/7/2 10/6/2 16/18/2
f 7/19/6 13/22/6 12/23/6 8/20/6
f 10/6/2 14/10/2 13/22/2 7/19/2 16/18/2
f 38/24/6 37/21/6 16/18/6 15/17/6
f 30/12/4 38/24/4 15/17/4 9/13/4
f 12/23/5 13/22/5 14/15/5 11/14/5
f 8/20/4 12/23/4 11/16/4 9/13/4 15/17/4
f 10/6/1 16/18/1 15/17/1 9/13/1
f 21/25/5 22/26/5 17/27/5 18/28/5
f 23/5/2 29/7/2 28/29/2 22/26/2
f 17/27/3 20/30/3 19/31/3 18/28/3
f 28/29/2 34/32/2 20/30/2 17/27/2 22/26/2
f 24/11/3 23/5/3 22/26/3 21/25/3
f 30/12/4 24/11/4 21/25/4 27/33/4
f 19/31/1 20/30/1 34/34/1 31/35/1
f 18/28/4 19/31/4 31/36/4 27/33/4 21/25/4
f 28/29/5 22/26/5 21/25/5 27/33/5
f 35/37/5 26/38/5 25/39/5 36/40/5
f 37/21/2 36/40/2 28/29/2 29/7/2
f 25/39/6 26/38/6 32/41/6 33/42/6
f 28/29/2 36/40/2 25/39/2 33/42/2 34/32/2
f 38/24/6 35/37/6 36/40/6 37/21/6
f 30/12/4 27/33/4 35/37/4 38/24/4
f 32/41/1 31/35/1 34/34/1 33/42/1
f 26/38/4 35/37/4 27/33/4 31/36/4 32/41/4
f 28/29/5 27/33/5 35/37/5 36/40/5
o beam2_Cube.002
v 1.236738 0.057651 0.420898
v 1.236738 0.057651 -0.497684
v 1.236738 0.097347 -0.497684
v 1.236738 0.097347 0.420898
v 1.179033 0.057651 -0.497684
v 1.179033 0.057651 0.420898
v 1.082049 0.057651 0.420898
v 1.082049 0.057651 -0.497684
v 1.159394 0.057651 -0.497684
v 1.159394 0.057651 0.420898
v 1.159394 0.097347 -0.497684
v 1.082049 0.097347 -0.497684
v 1.082049 0.097347 0.420898
v 1.159394 0.097347 0.420898
v 1.139754 0.057651 -0.497684
v 1.139754 0.057651 0.420898
v 1.236738 -0.056798 0.420898
v 1.236738 -0.056798 -0.497684
v 1.236738 -0.096494 -0.497684
v 1.236738 -0.096494 0.420898
v 1.179033 -0.056798 -0.497684
v 1.179033 -0.056798 0.420898
v 1.179033 0.000427 0.420898
v 1.179033 0.000427 -0.497684
v 1.082049 -0.056798 0.420898
v 1.082049 -0.056798 -0.497684
v 1.159394 -0.056798 -0.497684
v 1.159394 -0.056798 0.420898
v 1.159394 0.000427 0.420898
v 1.159394 0.000427 -0.497684
v 1.159394 -0.096494 -0.497684
v 1.082049 -0.096494 -0.497684
v 1.082049 -0.096494 0.420898
v 1.159394 -0.096494 0.420898
v 1.139754 -0.056798 -0.497684
v 1.139754 -0.056798 0.420898
v 1.139754 0.000427 0.420898
v 1.139754 0.000427 -0.497684
vt 0.625000 0.437500
vt 0.625000 0.500000
vt 0.625000 0.750000
vt 0.625000 0.812500
vt 0.500000 0.812500
vt 0.625000 0.875000
vt 0.500000 0.875000
vt 0.625000 0.500000
vt 0.625000 0.750000
vt 0.625000 0.875000
vt 0.500000 0.437500
vt 0.500000 0.375000
vt 0.625000 0.375000
vt 0.750000 0.500000
vt 0.750000 0.750000
vt 0.625000 0.375000
vt 0.625000 0.437500
vt 0.625000 0.812500
vt 0.625000 0.750000
vt 0.625000 0.500000
vt 0.500000 0.812500
vt 0.625000 0.750000
vt 0.625000 0.500000
vt 0.500000 0.437500
vt 0.625000 0.437500
vt 0.625000 0.812500
vt 0.625000 0.750000
vt 0.625000 0.500000
vt 0.625000 0.875000
vt 0.625000 0.750000
vt 0.625000 0.500000
vt 0.625000 0.875000
vt 0.625000 0.375000
vt 0.750000 0.750000
vt 0.750000 0.500000
vt 0.625000 0.375000
vt 0.625000 0.437500
vt 0.625000 0.500000
vt 0.625000 0.750000
vt 0.625000 0.812500
vt 0.625000 0.500000
vt 0.625000 0.750000
vn 0.0000 -1.0000 0.0000
vn 0.0000 0.0000 1.0000
vn 1.0000 0.0000 0.0000
vn 0.0000 0.0000 -1.0000
vn 0.0000 1.0000 0.0000
vn -1.0000 0.0000 0.0000
usemtl None
s off
f 43/43/7 40/44/7 39/45/7 44/46/7
f 61/47/8 44/46/8 48/48/8 67/49/8
f 39/45/9 40/44/9 41/50/9 42/51/9
f 48/48/8 44/46/8 39/45/8 42/51/8 52/52/8
f 62/53/9 43/43/9 44/46/9 61/47/9
f 68/54/10 47/55/10 43/43/10 62/53/10
f 41/50/11 49/56/11 52/57/11 42/51/11
f 40/44/10 43/43/10 47/55/10 49/58/10 41/50/10
f 48/48/7 47/55/7 43/43/7 44/46/7
f 53/59/7 54/60/7 45/61/7 46/62/7
f 75/63/8 67/49/8 48/48/8 54/60/8
f 45/61/12 51/64/12 50/65/12 46/62/12
f 48/48/8 52/52/8 51/64/8 45/61/8 54/60/8
f 76/66/12 75/63/12 54/60/12 53/59/12
f 68/54/10 76/66/10 53/59/10 47/55/10
f 50/65/11 51/64/11 52/57/11 49/56/11
f 46/62/10 50/65/10 49/58/10 47/55/10 53/59/10
f 48/48/7 54/60/7 53/59/7 47/55/7
f 59/67/11 60/68/11 55/69/11 56/70/11
f 61/47/8 67/49/8 66/71/8 60/68/8
f 55/69/9 58/72/9 57/73/9 56/70/9
f 66/71/8 72/74/8 58/72/8 55/69/8 60/68/8
f 62/53/9 61/47/9 60/68/9 59/67/9
f 68/54/10 62/53/10 59/67/10 65/75/10
f 57/73/7 58/72/7 72/76/7 69/77/7
f 56/70/10 57/73/10 69/78/10 65/75/10 59/67/10
f 66/71/11 60/68/11 59/67/11 65/75/11
f 73/79/11 64/80/11 63/81/11 74/82/11
f 75/63/8 74/82/8 66/71/8 67/49/8
f 63/81/12 64/80/12 70/83/12 71/84/12
f 66/71/8 74/82/8 63/81/8 71/84/8 72/74/8
f 76/66/12 73/79/12 74/82/12 75/63/12
f 68/54/10 65/75/10 73/79/10 76/66/10
f 70/83/7 69/77/7 72/76/7 71/84/7
f 64/80/10 73/79/10 65/75/10 69/78/10 70/83/10
f 66/71/11 65/75/11 73/79/11 74/82/11
o beam3_Cube.003
v 1.167391 0.098208 0.358612
v 1.114280 0.098208 -0.558434
v 1.153909 0.098208 -0.560729
v 1.207021 0.098208 0.356317
v 1.114280 0.155913 -0.558434
v 1.167391 0.155913 0.358612
v 1.167391 0.252897 0.358612
v 1.114280 0.252897 -0.558434
v 1.114280 0.175552 -0.558434
v 1.167391 0.175552 0.358612
v 1.153909 0.175552 -0.560729
v 1.153909 0.252897 -0.560729
v 1.207021 0.252897 0.356317
v 1.207021 0.175552 0.356317
v 1.114280 0.195192 -0.558434
v 1.167391 0.195192 0.358612
v 1.053133 0.098208 0.365229
v 1.000022 0.098208 -0.551817
v 0.960392 0.098208 -0.549521
v 1.013504 0.098208 0.367524
v 1.000022 0.155913 -0.551817
v 1.053133 0.155913 0.365229
v 1.110262 0.155913 0.361920
v 1.057151 0.155913 -0.555125
v 1.053133 0.252897 0.365229
v 1.000022 0.252897 -0.551817
v 1.000022 0.175552 -0.551817
v 1.053133 0.175552 0.365229
v 1.110262 0.175552 0.361920
v 1.057151 0.175552 -0.555125
v 0.960392 0.175552 -0.549521
v 0.960392 0.252897 -0.549521
v 1.013504 0.252897 0.367524
v 1.013504 0.175552 0.367524
v 1.000022 0.195192 -0.551817
v 1.053133 0.195192 0.365229
v 1.110262 0.195192 0.361920
v 1.057151 0.195192 -0.555125
vt 0.625000 0.437500
vt 0.625000 0.500000
vt 0.625000 0.750000
vt 0.625000 0.812500
vt 0.500000 0.812500
vt 0.625000 0.875000
vt 0.500000 0.875000
vt 0.625000 0.500000
vt 0.625000 0.750000
vt 0.625000 0.875000
vt 0.500000 0.437500
vt 0.500000 0.375000
vt 0.625000 0.375000
vt 0.750000 0.500000
vt 0.750000 0.750000
vt 0.625000 0.375000
vt 0.625000 0.437500
vt 0.625000 0.812500
vt 0.625000 0.750000
vt 0.625000 0.500000
vt 0.500000 0.812500
vt 0.625000 0.750000
vt 0.625000 0.500000
vt 0.500000 0.437500
vt 0.625000 0.437500
vt 0.625000 0.812500
vt 0.625000 0.750000
vt 0.625000 0.500000
vt 0.625000 0.875000
vt 0.625000 0.750000
vt 0.625000 0.500000
vt 0.625000 0.875000
vt 0.625000 0.375000
vt 0.750000 0.750000
vt 0.750000 0.500000
vt 0.625000 0.375000
vt 0.625000 0.437500
vt 0.625000 0.500000
vt 0.625000 0.750000
vt 0.625000 0.812500
vt 0.625000 0.500000
vt 0.625000 0.750000
vn -0.9983 0.0000 0.0578
vn 0.0578 0.0000 0.9983
vn 0.0000 -1.0000 0.0000
vn -0.0578 0.0000 -0.9983
vn 0.9983 0.0000 -0.0578
vn 0.0000 1.0000 0.0000
usemtl None
s off
f 81/85/13 78/86/13 77/87/13 82/88/13
f 99/89/14 82/88/14 86/90/14 105/91/14
f 77/87/15 78/86/15 79/92/15 80/93/15
f 86/90/14 82/88/14 77/87/14 80/93/14 90/94/14
f 100/95/15 81/85/15 82/88/15 99/89/15
f 106/96/16 85/97/16 81/85/16 100/95/16
f 79/92/17 87/98/17 90/99/17 80/93/17
f 78/86/16 81/85/16 85/97/16 87/100/16 79/92/16
f 86/90/13 85/97/13 81/85/13 82/88/13
f 91/101/13 92/102/13 83/103/13 84/104/13
f 113/105/14 105/91/14 86/90/14 92/102/14
f 83/103/18 89/106/18 88/107/18 84/104/18
f 86/90/14 90/94/14 89/106/14 83/103/14 92/102/14
f 114/108/18 113/105/18 92/102/18 91/101/18
f 106/96/16 114/108/16 91/101/16 85/97/16
f 88/107/17 89/106/17 90/99/17 87/98/17
f 84/104/16 88/107/16 87/100/16 85/97/16 91/101/16
f 86/90/13 92/102/13 91/101/13 85/97/13
f 97/109/17 98/110/17 93/111/17 94/112/17
f 99/89/14 105/91/14 104/113/14 98/110/14
f 93/111/15 96/114/15 95/115/15 94/112/15
f 104/113/14 110/116/14 96/114/14 93/111/14 98/110/14
f 100/95/15 99/89/15 98/110/15 97/109/15
f 106/96/16 100/95/16 97/109/16 103/117/16
f 95/115/13 96/114/13 110/118/13 107/119/13
f 94/112/16 95/115/16 107/120/16 103/117/16 97/109/16
f 104/113/17 98/110/17 97/109/17 103/117/17
f 111/121/17 102/122/17 101/123/17 112/124/17
f 113/105/14 112/124/14 104/113/14 105/91/14
f 101/123/18 102/122/18 108/125/18 109/126/18
f 104/113/14 112/124/14 101/123/14 109/126/14 110/116/14
f 114/108/18 111/121/18 112/124/18 113/105/18
f 106/96/16 103/117/16 111/121/16 114/108/16
f 108/125/13 107/119/13 110/118/13 109/126/13
f 102/122/16 111/121/16 103/117/16 107/120/16 108/125/16
f 104/113/17 103/117/17 111/121/17 112/124/17
