# Blender v2.93.3 OBJ File: 'resources.blend'
# www.blender.org
mtllib ingots.mtl
o ingot1_Plane.003
v 5.941945 0.000000 0.147074
v 6.058055 0.000000 0.147074
v 5.941945 0.000000 -0.147074
v 6.058055 0.000000 -0.147074
v 5.951513 0.072254 -0.122835
v 5.951513 0.072254 0.122835
v 6.048487 0.072254 0.122835
v 6.048487 0.072254 -0.122835
vt 0.000000 0.000000
vt 0.000000 1.000000
vt 1.000000 1.000000
vt 1.000000 0.000000
vt 0.000000 0.000000
vt 1.000000 0.000000
vt 1.000000 1.000000
vt 0.000000 1.000000
vn 0.0000 -1.0000 0.0000
vn 0.0000 1.0000 0.0000
vn -0.9913 0.1313 0.0000
vn 0.0000 0.3181 -0.9481
vn 0.0000 0.3181 0.9481
vn 0.9913 0.1313 0.0000
usemtl None
s off
f 1/1/1 3/2/1 4/3/1 2/4/1
f 6/5/2 7/6/2 8/7/2 5/8/2
f 3/2/3 1/1/3 6/5/3 5/8/3
f 4/3/4 3/2/4 5/8/4 8/7/4
f 1/1/5 2/4/5 7/6/5 6/5/5
f 2/4/6 4/3/6 8/7/6 7/6/6
o ingot2_Plane.008
v 6.071180 0.000000 0.123936
v 6.187291 0.000000 0.123936
v 6.071180 0.000000 -0.170213
v 6.187291 0.000000 -0.170213
v 6.080749 0.072254 -0.145974
v 6.080749 0.072254 0.099697
v 6.177723 0.072254 0.099697
v 6.177723 0.072254 -0.145974
vt 0.000000 0.000000
vt 0.000000 1.000000
vt 1.000000 1.000000
vt 1.000000 0.000000
vt 0.000000 0.000000
vt 1.000000 0.000000
vt 1.000000 1.000000
vt 0.000000 1.000000
vn 0.0000 -1.0000 0.0000
vn 0.0000 1.0000 0.0000
vn -0.9913 0.1313 0.0000
vn 0.0000 0.3181 -0.9481
vn 0.0000 0.3181 0.9481
vn 0.9913 0.1313 0.0000
usemtl None
s off
f 9/9/7 11/10/7 12/11/7 10/12/7
f 14/13/8 15/14/8 16/15/8 13/16/8
f 11/10/9 9/9/9 14/13/9 13/16/9
f 12/11/10 11/10/10 13/16/10 16/15/10
f 9/9/11 10/12/11 15/14/11 14/13/11
f 10/12/12 12/11/12 16/15/12 15/14/12
o ingot3_Plane.009
v 6.008106 0.073112 0.139452
v 6.124217 0.073112 0.139452
v 6.008106 0.073112 -0.154697
v 6.124217 0.073112 -0.154697
v 6.017674 0.145366 -0.130458
v 6.017674 0.145366 0.115213
v 6.114648 0.145366 0.115213
v 6.114648 0.145366 -0.130458
vt 0.000000 0.000000
vt 0.000000 1.000000
vt 1.000000 1.000000
vt 1.000000 0.000000
vt 0.000000 0.000000
vt 1.000000 0.000000
vt 1.000000 1.000000
vt 0.000000 1.000000
vn 0.0000 -1.0000 0.0000
vn 0.0000 1.0000 0.0000
vn -0.9913 0.1313 0.0000
vn 0.0000 0.3181 -0.9481
vn 0.0000 0.3181 0.9481
vn 0.9913 0.1313 0.0000
usemtl None
s off
f 17/17/13 19/18/13 20/19/13 18/20/13
f 22/21/14 23/22/14 24/23/14 21/24/14
f 19/18/15 17/17/15 22/21/15 21/24/15
f 20/19/16 19/18/16 21/24/16 24/23/16
f 17/17/17 18/20/17 23/22/17 22/21/17
f 18/20/18 20/19/18 24/23/18 23/22/18
