# Blender v2.93.3 OBJ File: 'resources.blend'
# www.blender.org
mtllib pipes.mtl
o pipe1_Cylinder.001
v 0.000000 0.065970 -0.587895
v 0.000000 0.065970 0.587895
v 0.032985 0.057132 -0.587895
v 0.032985 0.057131 0.587895
v 0.057131 0.032985 -0.587895
v 0.057131 0.032985 0.587895
v 0.065970 0.000000 -0.587895
v 0.065970 -0.000000 0.587895
v 0.057131 -0.032985 -0.587895
v 0.057131 -0.032985 0.587895
v 0.032985 -0.057131 -0.587895
v 0.032985 -0.057132 0.587895
v -0.000000 -0.065970 -0.587895
v -0.000000 -0.065970 0.587895
v -0.032985 -0.057131 -0.587895
v -0.032985 -0.057132 0.587895
v -0.057131 -0.032985 -0.587895
v -0.057131 -0.032985 0.587895
v -0.065970 0.000000 -0.587895
v -0.065970 -0.000000 0.587895
v -0.057131 0.032985 -0.587895
v -0.057131 0.032985 0.587895
v -0.032985 0.057132 -0.587895
v -0.032985 0.057131 0.587895
v 0.000000 0.080848 -0.587895
v 0.040424 0.070016 -0.587895
v 0.040424 0.070016 0.587895
v 0.000000 0.080848 0.587895
v 0.070016 0.040424 -0.587895
v 0.070016 0.040424 0.587895
v 0.080848 0.000000 -0.587895
v 0.080848 -0.000000 0.587895
v 0.070016 -0.040424 -0.587895
v 0.070016 -0.040424 0.587895
v 0.040424 -0.070016 -0.587895
v 0.040424 -0.070016 0.587895
v -0.000000 -0.080848 -0.587895
v -0.000000 -0.080848 0.587895
v -0.040424 -0.070016 -0.587895
v -0.040424 -0.070016 0.587895
v -0.070016 -0.040424 -0.587895
v -0.070016 -0.040424 0.587895
v -0.080848 0.000000 -0.587895
v -0.080848 -0.000000 0.587895
v -0.070016 0.040424 -0.587895
v -0.070016 0.040424 0.587895
v -0.040424 0.070016 -0.587895
v -0.040424 0.070016 0.587895
vt 1.000000 0.500000
vt 1.000000 1.000000
vt 0.916667 1.000000
vt 0.916667 0.500000
vt 0.833333 1.000000
vt 0.833333 0.500000
vt 0.750000 1.000000
vt 0.750000 0.500000
vt 0.666667 1.000000
vt 0.666667 0.500000
vt 0.583333 1.000000
vt 0.583333 0.500000
vt 0.500000 1.000000
vt 0.500000 0.500000
vt 0.416667 1.000000
vt 0.416667 0.500000
vt 0.333333 1.000000
vt 0.333333 0.500000
vt 0.250000 1.000000
vt 0.250000 0.500000
vt 0.166667 1.000000
vt 0.166667 0.500000
vt 0.083333 1.000000
vt 0.083333 0.500000
vt 0.000000 1.000000
vt 0.000000 0.500000
vt 0.847917 0.419598
vt 0.750000 0.445835
vt 0.750000 0.490000
vt 0.870000 0.457846
vt 0.250000 0.445835
vt 0.347917 0.419598
vt 0.370000 0.457846
vt 0.250000 0.490000
vt 0.919598 0.347917
vt 0.957846 0.370000
vt 0.419598 0.347917
vt 0.457846 0.370000
vt 0.945834 0.250000
vt 0.990000 0.250000
vt 0.445835 0.250000
vt 0.490000 0.250000
vt 0.919598 0.152083
vt 0.957846 0.130000
vt 0.419598 0.152083
vt 0.457846 0.130000
vt 0.847917 0.080402
vt 0.870000 0.042154
vt 0.347917 0.080402
vt 0.370000 0.042154
vt 0.750000 0.054165
vt 0.750000 0.010000
vt 0.250000 0.054165
vt 0.250000 0.010000
vt 0.652083 0.080402
vt 0.630000 0.042154
vt 0.152083 0.080402
vt 0.130000 0.042154
vt 0.580402 0.152083
vt 0.542154 0.130000
vt 0.080402 0.152083
vt 0.042154 0.130000
vt 0.554165 0.250000
vt 0.510000 0.250000
vt 0.054165 0.250000
vt 0.010000 0.250000
vt 0.580402 0.347917
vt 0.542154 0.370000
vt 0.080402 0.347917
vt 0.042154 0.370000
vt 0.652083 0.419598
vt 0.630000 0.457846
vt 0.152083 0.419598
vt 0.130000 0.457846
vn 0.2588 0.9659 0.0000
vn 0.7071 0.7071 0.0000
vn 0.9659 0.2588 0.0000
vn 0.9659 -0.2588 -0.0000
vn 0.7071 -0.7071 -0.0000
vn 0.2588 -0.9659 -0.0000
vn -0.2588 -0.9659 -0.0000
vn -0.7071 -0.7071 -0.0000
vn -0.9659 -0.2588 -0.0000
vn -0.9659 0.2588 0.0000
vn -0.7071 0.7071 0.0000
vn -0.2588 0.9659 0.0000
vn 0.0000 0.0000 -1.0000
vn -0.0000 0.0000 1.0000
usemtl None
s off
f 25/1/1 28/2/1 27/3/1 26/4/1
f 26/4/2 27/3/2 30/5/2 29/6/2
f 29/6/3 30/5/3 32/7/3 31/8/3
f 31/8/4 32/7/4 34/9/4 33/10/4
f 33/10/5 34/9/5 36/11/5 35/12/5
f 35/12/6 36/11/6 38/13/6 37/14/6
f 37/14/7 38/13/7 40/15/7 39/16/7
f 39/16/8 40/15/8 42/17/8 41/18/8
f 41/18/9 42/17/9 44/19/9 43/20/9
f 43/20/10 44/19/10 46/21/10 45/22/10
f 45/22/11 46/21/11 48/23/11 47/24/11
f 47/24/12 48/23/12 28/25/12 25/26/12
f 3/27/13 1/28/13 25/29/13 26/30/13
f 2/31/14 4/32/14 27/33/14 28/34/14
f 5/35/13 3/27/13 26/30/13 29/36/13
f 4/32/14 6/37/14 30/38/14 27/33/14
f 7/39/13 5/35/13 29/36/13 31/40/13
f 6/37/14 8/41/14 32/42/14 30/38/14
f 9/43/13 7/39/13 31/40/13 33/44/13
f 8/41/14 10/45/14 34/46/14 32/42/14
f 11/47/13 9/43/13 33/44/13 35/48/13
f 10/45/14 12/49/14 36/50/14 34/46/14
f 13/51/13 11/47/13 35/48/13 37/52/13
f 12/49/14 14/53/14 38/54/14 36/50/14
f 15/55/13 13/51/13 37/52/13 39/56/13
f 14/53/14 16/57/14 40/58/14 38/54/14
f 17/59/13 15/55/13 39/56/13 41/60/13
f 16/57/14 18/61/14 42/62/14 40/58/14
f 19/63/13 17/59/13 41/60/13 43/64/13
f 18/61/14 20/65/14 44/66/14 42/62/14
f 21/67/13 19/63/13 43/64/13 45/68/13
f 20/65/14 22/69/14 46/70/14 44/66/14
f 23/71/13 21/67/13 45/68/13 47/72/13
f 22/69/14 24/73/14 48/74/14 46/70/14
f 1/28/13 23/71/13 47/72/13 25/29/13
f 24/73/14 2/31/14 28/34/14 48/74/14
f 2/31/6 24/73/6 23/71/6 1/28/6
f 24/73/5 22/69/5 21/67/5 23/71/5
f 22/69/4 20/65/4 19/63/4 21/67/4
f 20/65/3 18/61/3 17/59/3 19/63/3
f 18/61/2 16/57/2 15/55/2 17/59/2
f 16/57/1 14/53/1 13/51/1 15/55/1
f 14/53/12 12/49/12 11/47/12 13/51/12
f 12/49/11 10/45/11 9/43/11 11/47/11
f 10/45/10 8/41/10 7/39/10 9/43/10
f 8/41/9 6/37/9 5/35/9 7/39/9
f 6/37/8 4/32/8 3/27/8 5/35/8
f 4/32/7 2/31/7 1/28/7 3/27/7
o pipe2_Cylinder.002
v 0.158966 0.077156 -0.602655
v 0.158966 0.077156 0.573136
v 0.191951 0.068317 -0.602655
v 0.191951 0.068317 0.573136
v 0.216097 0.044171 -0.602655
v 0.216097 0.044171 0.573136
v 0.224936 0.011186 -0.602655
v 0.224936 0.011186 0.573136
v 0.216097 -0.021799 -0.602655
v 0.216097 -0.021799 0.573136
v 0.191951 -0.045946 -0.602655
v 0.191951 -0.045946 0.573136
v 0.158966 -0.054784 -0.602655
v 0.158966 -0.054784 0.573136
v 0.125981 -0.045946 -0.602655
v 0.125981 -0.045946 0.573136
v 0.101834 -0.021799 -0.602655
v 0.101834 -0.021799 0.573136
v 0.092996 0.011186 -0.602655
v 0.092996 0.011186 0.573136
v 0.101834 0.044171 -0.602655
v 0.101834 0.044171 0.573136
v 0.125981 0.068317 -0.602655
v 0.125981 0.068317 0.573136
v 0.158966 0.092033 -0.602655
v 0.199390 0.081202 -0.602655
v 0.199390 0.081202 0.573136
v 0.158966 0.092033 0.573136
v 0.228982 0.051610 -0.602655
v 0.228982 0.051610 0.573136
v 0.239814 0.011186 -0.602655
v 0.239814 0.011186 0.573136
v 0.228982 -0.029238 -0.602655
v 0.228982 -0.029238 0.573136
v 0.199390 -0.058830 -0.602655
v 0.199390 -0.058830 0.573136
v 0.158966 -0.069662 -0.602655
v 0.158966 -0.069662 0.573136
v 0.118542 -0.058830 -0.602655
v 0.118542 -0.058830 0.573136
v 0.088950 -0.029238 -0.602655
v 0.088950 -0.029238 0.573136
v 0.078118 0.011186 -0.602655
v 0.078118 0.011186 0.573136
v 0.088950 0.051610 -0.602655
v 0.088950 0.051610 0.573136
v 0.118542 0.081202 -0.602655
v 0.118542 0.081202 0.573136
vt 1.000000 0.500000
vt 1.000000 1.000000
vt 0.916667 1.000000
vt 0.916667 0.500000
vt 0.833333 1.000000
vt 0.833333 0.500000
vt 0.750000 1.000000
vt 0.750000 0.500000
vt 0.666667 1.000000
vt 0.666667 0.500000
vt 0.583333 1.000000
vt 0.583333 0.500000
vt 0.500000 1.000000
vt 0.500000 0.500000
vt 0.416667 1.000000
vt 0.416667 0.500000
vt 0.333333 1.000000
vt 0.333333 0.500000
vt 0.250000 1.000000
vt 0.250000 0.500000
vt 0.166667 1.000000
vt 0.166667 0.500000
vt 0.083333 1.000000
vt 0.083333 0.500000
vt 0.000000 1.000000
vt 0.000000 0.500000
vt 0.847917 0.419598
vt 0.750000 0.445835
vt 0.750000 0.490000
vt 0.870000 0.457846
vt 0.250000 0.445835
vt 0.347917 0.419598
vt 0.370000 0.457846
vt 0.250000 0.490000
vt 0.919598 0.347917
vt 0.957846 0.370000
vt 0.419598 0.347917
vt 0.457846 0.370000
vt 0.945834 0.250000
vt 0.990000 0.250000
vt 0.445835 0.250000
vt 0.490000 0.250000
vt 0.919598 0.152083
vt 0.957846 0.130000
vt 0.419598 0.152083
vt 0.457846 0.130000
vt 0.847917 0.080402
vt 0.870000 0.042154
vt 0.347917 0.080402
vt 0.370000 0.042154
vt 0.750000 0.054165
vt 0.750000 0.010000
vt 0.250000 0.054165
vt 0.250000 0.010000
vt 0.652083 0.080402
vt 0.630000 0.042154
vt 0.152083 0.080402
vt 0.130000 0.042154
vt 0.580402 0.152083
vt 0.542154 0.130000
vt 0.080402 0.152083
vt 0.042154 0.130000
vt 0.554165 0.250000
vt 0.510000 0.250000
vt 0.054165 0.250000
vt 0.010000 0.250000
vt 0.580402 0.347917
vt 0.542154 0.370000
vt 0.080402 0.347917
vt 0.042154 0.370000
vt 0.652083 0.419598
vt 0.630000 0.457846
vt 0.152083 0.419598
vt 0.130000 0.457846
vn 0.2588 0.9659 0.0000
vn 0.7071 0.7071 0.0000
vn 0.9659 0.2588 0.0000
vn 0.9659 -0.2588 -0.0000
vn 0.7071 -0.7071 -0.0000
vn 0.2588 -0.9659 -0.0000
vn -0.2588 -0.9659 -0.0000
vn -0.7071 -0.7071 -0.0000
vn -0.9659 -0.2588 -0.0000
vn -0.9659 0.2588 0.0000
vn -0.7071 0.7071 0.0000
vn -0.2588 0.9659 0.0000
vn 0.0000 0.0000 -1.0000
vn 0.0000 0.0000 1.0000
usemtl None
s off
f 73/75/15 76/76/15 75/77/15 74/78/15
f 74/78/16 75/77/16 78/79/16 77/80/16
f 77/80/17 78/79/17 80/81/17 79/82/17
f 79/82/18 80/81/18 82/83/18 81/84/18
f 81/84/19 82/83/19 84/85/19 83/86/19
f 83/86/20 84/85/20 86/87/20 85/88/20
f 85/88/21 86/87/21 88/89/21 87/90/21
f 87/90/22 88/89/22 90/91/22 89/92/22
f 89/92/23 90/91/23 92/93/23 91/94/23
f 91/94/24 92/93/24 94/95/24 93/96/24
f 93/96/25 94/95/25 96/97/25 95/98/25
f 95/98/26 96/97/26 76/99/26 73/100/26
f 51/101/27 49/102/27 73/103/27 74/104/27
f 50/105/28 52/106/28 75/107/28 76/108/28
f 53/109/27 51/101/27 74/104/27 77/110/27
f 52/106/28 54/111/28 78/112/28 75/107/28
f 55/113/27 53/109/27 77/110/27 79/114/27
f 54/111/28 56/115/28 80/116/28 78/112/28
f 57/117/27 55/113/27 79/114/27 81/118/27
f 56/115/28 58/119/28 82/120/28 80/116/28
f 59/121/27 57/117/27 81/118/27 83/122/27
f 58/119/28 60/123/28 84/124/28 82/120/28
f 61/125/27 59/121/27 83/122/27 85/126/27
f 60/123/28 62/127/28 86/128/28 84/124/28
f 63/129/27 61/125/27 85/126/27 87/130/27
f 62/127/28 64/131/28 88/132/28 86/128/28
f 65/133/27 63/129/27 87/130/27 89/134/27
f 64/131/28 66/135/28 90/136/28 88/132/28
f 67/137/27 65/133/27 89/134/27 91/138/27
f 66/135/28 68/139/28 92/140/28 90/136/28
f 69/141/27 67/137/27 91/138/27 93/142/27
f 68/139/28 70/143/28 94/144/28 92/140/28
f 71/145/27 69/141/27 93/142/27 95/146/27
f 70/143/28 72/147/28 96/148/28 94/144/28
f 49/102/27 71/145/27 95/146/27 73/103/27
f 72/147/28 50/105/28 76/108/28 96/148/28
f 50/105/20 72/147/20 71/145/20 49/102/20
f 72/147/19 70/143/19 69/141/19 71/145/19
f 70/143/18 68/139/18 67/137/18 69/141/18
f 68/139/17 66/135/17 65/133/17 67/137/17
f 66/135/16 64/131/16 63/129/16 65/133/16
f 64/131/15 62/127/15 61/125/15 63/129/15
f 62/127/26 60/123/26 59/121/26 61/125/26
f 60/123/25 58/119/25 57/117/25 59/121/25
f 58/119/24 56/115/24 55/113/24 57/117/24
f 56/115/23 54/111/23 53/109/23 55/113/23
f 54/111/22 52/106/22 51/101/22 53/109/22
f 52/106/21 50/105/21 49/102/21 51/101/21
o pipe3_Cylinder.003
v 0.081904 0.207078 -0.627320
v 0.081904 0.207078 0.548471
v 0.112619 0.192153 -0.627320
v 0.112619 0.192153 0.548471
v 0.131756 0.163871 -0.627320
v 0.131756 0.163871 0.548471
v 0.134189 0.129810 -0.627320
v 0.134189 0.129810 0.548471
v 0.119264 0.099095 -0.627320
v 0.119264 0.099095 0.548471
v 0.090982 0.079958 -0.627320
v 0.090982 0.079958 0.548471
v 0.056920 0.077525 -0.627320
v 0.056920 0.077525 0.548471
v 0.026206 0.092450 -0.627320
v 0.026206 0.092450 0.548471
v 0.007068 0.120732 -0.627320
v 0.007069 0.120732 0.548471
v 0.004636 0.154794 -0.627320
v 0.004636 0.154794 0.548471
v 0.019561 0.185508 -0.627320
v 0.019561 0.185508 0.548471
v 0.047843 0.204646 -0.627320
v 0.047843 0.204645 0.548471
v 0.084722 0.221687 -0.627320
v 0.122363 0.203396 -0.627320
v 0.122363 0.203396 0.548471
v 0.084722 0.221686 0.548471
v 0.145816 0.168736 -0.627320
v 0.145816 0.168736 0.548471
v 0.148797 0.126992 -0.627320
v 0.148797 0.126992 0.548471
v 0.130507 0.089351 -0.627320
v 0.130507 0.089351 0.548471
v 0.095847 0.065898 -0.627320
v 0.095847 0.065898 0.548471
v 0.054103 0.062917 -0.627320
v 0.054103 0.062917 0.548471
v 0.016462 0.081207 -0.627320
v 0.016462 0.081207 0.548471
v -0.006992 0.115868 -0.627320
v -0.006992 0.115867 0.548471
v -0.009972 0.157611 -0.627320
v -0.009972 0.157611 0.548471
v 0.008318 0.195252 -0.627320
v 0.008318 0.195252 0.548471
v 0.042978 0.218706 -0.627320
v 0.042978 0.218706 0.548471
vt 1.000000 0.500000
vt 1.000000 1.000000
vt 0.916667 1.000000
vt 0.916667 0.500000
vt 0.833333 1.000000
vt 0.833333 0.500000
vt 0.750000 1.000000
vt 0.750000 0.500000
vt 0.666667 1.000000
vt 0.666667 0.500000
vt 0.583333 1.000000
vt 0.583333 0.500000
vt 0.500000 1.000000
vt 0.500000 0.500000
vt 0.416667 1.000000
vt 0.416667 0.500000
vt 0.333333 1.000000
vt 0.333333 0.500000
vt 0.250000 1.000000
vt 0.250000 0.500000
vt 0.166667 1.000000
vt 0.166667 0.500000
vt 0.083333 1.000000
vt 0.083333 0.500000
vt 0.000000 1.000000
vt 0.000000 0.500000
vt 0.847917 0.419598
vt 0.750000 0.445835
vt 0.750000 0.490000
vt 0.870000 0.457846
vt 0.250000 0.445835
vt 0.347917 0.419598
vt 0.370000 0.457846
vt 0.250000 0.490000
vt 0.919598 0.347917
vt 0.957846 0.370000
vt 0.419598 0.347917
vt 0.457846 0.370000
vt 0.945834 0.250000
vt 0.990000 0.250000
vt 0.445835 0.250000
vt 0.490000 0.250000
vt 0.919598 0.152083
vt 0.957846 0.130000
vt 0.419598 0.152083
vt 0.457846 0.130000
vt 0.847917 0.080402
vt 0.870000 0.042154
vt 0.347917 0.080402
vt 0.370000 0.042154
vt 0.750000 0.054165
vt 0.750000 0.010000
vt 0.250000 0.054165
vt 0.250000 0.010000
vt 0.652083 0.080402
vt 0.630000 0.042154
vt 0.152083 0.080402
vt 0.130000 0.042154
vt 0.580402 0.152083
vt 0.542154 0.130000
vt 0.080402 0.152083
vt 0.042154 0.130000
vt 0.554165 0.250000
vt 0.510000 0.250000
vt 0.054165 0.250000
vt 0.010000 0.250000
vt 0.580402 0.347917
vt 0.542154 0.370000
vt 0.080402 0.347917
vt 0.042154 0.370000
vt 0.652083 0.419598
vt 0.630000 0.457846
vt 0.152083 0.419598
vt 0.130000 0.457846
vn 0.4370 0.8994 0.0000
vn 0.8282 0.5604 0.0000
vn 0.9975 0.0712 -0.0000
vn 0.8994 -0.4370 -0.0000
vn 0.5604 -0.8282 -0.0000
vn 0.0712 -0.9975 -0.0000
vn -0.4370 -0.8994 -0.0000
vn -0.8282 -0.5604 -0.0000
vn -0.9975 -0.0712 0.0000
vn -0.8994 0.4370 0.0000
vn -0.5604 0.8282 0.0000
vn -0.0712 0.9975 0.0000
vn 0.0000 0.0000 -1.0000
vn 0.0000 0.0000 1.0000
usemtl None
s off
f 121/149/29 124/150/29 123/151/29 122/152/29
f 122/152/30 123/151/30 126/153/30 125/154/30
f 125/154/31 126/153/31 128/155/31 127/156/31
f 127/156/32 128/155/32 130/157/32 129/158/32
f 129/158/33 130/157/33 132/159/33 131/160/33
f 131/160/34 132/159/34 134/161/34 133/162/34
f 133/162/35 134/161/35 136/163/35 135/164/35
f 135/164/36 136/163/36 138/165/36 137/166/36
f 137/166/37 138/165/37 140/167/37 139/168/37
f 139/168/38 140/167/38 142/169/38 141/170/38
f 141/170/39 142/169/39 144/171/39 143/172/39
f 143/172/40 144/171/40 124/173/40 121/174/40
f 99/175/41 97/176/41 121/177/41 122/178/41
f 98/179/42 100/180/42 123/181/42 124/182/42
f 101/183/41 99/175/41 122/178/41 125/184/41
f 100/180/42 102/185/42 126/186/42 123/181/42
f 103/187/41 101/183/41 125/184/41 127/188/41
f 102/185/42 104/189/42 128/190/42 126/186/42
f 105/191/41 103/187/41 127/188/41 129/192/41
f 104/189/42 106/193/42 130/194/42 128/190/42
f 107/195/41 105/191/41 129/192/41 131/196/41
f 106/193/42 108/197/42 132/198/42 130/194/42
f 109/199/41 107/195/41 131/196/41 133/200/41
f 108/197/42 110/201/42 134/202/42 132/198/42
f 111/203/41 109/199/41 133/200/41 135/204/41
f 110/201/42 112/205/42 136/206/42 134/202/42
f 113/207/41 111/203/41 135/204/41 137/208/41
f 112/205/42 114/209/42 138/210/42 136/206/42
f 115/211/41 113/207/41 137/208/41 139/212/41
f 114/209/42 116/213/42 140/214/42 138/210/42
f 117/215/41 115/211/41 139/212/41 141/216/41
f 116/213/42 118/217/42 142/218/42 140/214/42
f 119/219/41 117/215/41 141/216/41 143/220/41
f 118/217/42 120/221/42 144/222/42 142/218/42
f 97/176/41 119/219/41 143/220/41 121/177/41
f 120/221/42 98/179/42 124/182/42 144/222/42
f 98/179/34 120/221/34 119/219/34 97/176/34
f 120/221/33 118/217/33 117/215/33 119/219/33
f 118/217/32 116/213/32 115/211/32 117/215/32
f 116/213/31 114/209/31 113/207/31 115/211/31
f 114/209/30 112/205/30 111/203/30 113/207/30
f 112/205/29 110/201/29 109/199/29 111/203/29
f 110/201/40 108/197/40 107/195/40 109/199/40
f 108/197/39 106/193/39 105/191/39 107/195/39
f 106/193/38 104/189/38 103/187/38 105/191/38
f 104/189/37 102/185/37 101/183/37 103/187/37
f 102/185/36 100/180/36 99/175/36 101/183/36
f 100/180/35 98/179/35 97/176/35 99/175/35
