# Blender v2.93.3 OBJ File: 'resources.blend'
# www.blender.org
mtllib sheets.mtl
o sheet1_Plane
v 1.752046 0.000000 0.247954
v 2.247954 0.000000 0.247954
v 1.752046 0.000000 -0.247954
v 2.247954 0.000000 -0.247954
v 1.752046 0.012910 -0.247954
v 1.752046 0.012910 0.247954
v 2.247954 0.012910 0.247954
v 2.247954 0.012910 -0.247954
vt 0.000000 0.000000
vt 0.000000 1.000000
vt 1.000000 1.000000
vt 1.000000 0.000000
vt 0.000000 0.000000
vt 1.000000 0.000000
vt 1.000000 1.000000
vt 0.000000 1.000000
vn 0.0000 -1.0000 0.0000
vn 0.0000 1.0000 0.0000
vn 1.0000 0.0000 0.0000
vn -1.0000 0.0000 0.0000
vn 0.0000 0.0000 -1.0000
vn 0.0000 0.0000 1.0000
usemtl None
s off
f 1/1/1 3/2/1 4/3/1 2/4/1
f 6/5/2 7/6/2 8/7/2 5/8/2
f 2/4/3 4/3/3 8/7/3 7/6/3
f 3/2/4 1/1/4 6/5/4 5/8/4
f 4/3/5 3/2/5 5/8/5 8/7/5
f 1/1/6 2/4/6 7/6/6 6/5/6
o sheet2_Plane.001
v 1.838012 0.026547 0.199570
v 2.333609 0.008969 0.199852
v 1.838012 0.018587 -0.296274
v 2.333609 0.001008 -0.295992
v 1.838470 0.031488 -0.296481
v 1.838470 0.039448 0.199363
v 2.334067 0.021869 0.199645
v 2.334067 0.013909 -0.296199
vt 0.000000 0.000000
vt 0.000000 1.000000
vt 1.000000 1.000000
vt 1.000000 0.000000
vt 0.000000 0.000000
vt 1.000000 0.000000
vt 1.000000 1.000000
vt 0.000000 1.000000
vn -0.0355 -0.9992 0.0160
vn 0.0355 0.9992 -0.0160
vn 0.9994 -0.0355 0.0006
vn -0.9994 0.0354 -0.0006
vn 0.0000 -0.0161 -0.9999
vn -0.0000 0.0161 0.9999
usemtl None
s off
f 9/9/7 11/10/7 12/11/7 10/12/7
f 14/13/8 15/14/8 16/15/8 13/16/8
f 10/12/9 12/11/9 16/15/9 15/14/9
f 11/10/10 9/9/10 14/13/10 13/16/10
f 12/11/11 11/10/11 13/16/11 16/15/11
f 9/9/12 10/12/12 15/14/12 14/13/12
o sheet3_Plane.002
v 1.725066 0.027939 0.175752
v 2.220848 0.039150 0.175688
v 1.725274 0.015884 -0.320009
v 2.221055 0.027095 -0.320074
v 1.724982 0.028787 -0.320323
v 1.724774 0.040842 0.175439
v 2.220556 0.052053 0.175374
v 2.220763 0.039998 -0.320388
vt 0.000000 0.000000
vt 0.000000 1.000000
vt 1.000000 1.000000
vt 1.000000 0.000000
vt 0.000000 0.000000
vt 1.000000 0.000000
vt 1.000000 1.000000
vt 0.000000 1.000000
vn 0.0226 -0.9994 0.0243
vn -0.0226 0.9994 -0.0243
vn 0.9997 0.0226 -0.0001
vn -0.9997 -0.0226 0.0001
vn 0.0004 -0.0243 -0.9997
vn -0.0004 0.0243 0.9997
usemtl None
s off
f 17/17/13 19/18/13 20/19/13 18/20/13
f 22/21/14 23/22/14 24/23/14 21/24/14
f 18/20/15 20/19/15 24/23/15 23/22/15
f 19/18/16 17/17/16 22/21/16 21/24/16
f 20/19/17 19/18/17 21/24/17 24/23/17
f 17/17/18 18/20/18 23/22/18 22/21/18
